<?xml version="1.0" encoding="UTF-8" standalone="no"?>
<svg
   viewBox="0 0 1143.2159 286.64267"
   height="286.64267"
   width="1143.2159"
   xml:space="preserve"
   id="svg2"
   version="1.1"
   xmlns="http://www.w3.org/2000/svg"
   xmlns:svg="http://www.w3.org/2000/svg"
   xmlns:rdf="http://www.w3.org/1999/02/22-rdf-syntax-ns#"
   xmlns:cc="http://creativecommons.org/ns#"
   xmlns:dc="http://purl.org/dc/elements/1.1/"><title
     id="title1">浙江工业大学校名</title><metadata
     id="metadata8"><rdf:RDF><cc:Work
         rdf:about=""><dc:format>image/svg+xml</dc:format><dc:type
           rdf:resource="http://purl.org/dc/dcmitype/StillImage" /><dc:title>浙江工业大学校名</dc:title></cc:Work></rdf:RDF></metadata><defs
     id="defs6"><clipPath
       id="clipPath18"
       clipPathUnits="userSpaceOnUse"><path
         id="path16"
         d="M 0,214.982 H 857.412 V 0 H 0 Z" /></clipPath></defs><g
     transform="matrix(1.3333333,0,0,-1.3333333,0,286.64267)"
     id="g10"
     style="fill:#000000;fill-opacity:1"><g
       id="g12"
       style="fill:#000000;fill-opacity:1"><g
         clip-path="url(#clipPath18)"
         id="g14"
         style="fill:#000000;fill-opacity:1"><g
           transform="translate(198.4836,144.8694)"
           id="g20"
           style="fill:#000000;fill-opacity:1"><path
             id="path22"
             style="fill:#000000;fill-opacity:1;fill-rule:evenodd;stroke:none"
             d="m 0,0 c 0,0 4.268,0.028 4.855,-2.043 0.285,-1.045 1.442,-7.351 3.541,-12.323 2.108,-4.982 5.173,-8.657 5.354,-9.926 0.388,-2.538 -2.677,-4.693 -3.488,-5 -0.789,-0.29 -1.735,0.391 -3.326,-0.859 -1.614,-1.222 -3.158,-0.242 -5.159,-4.104 -2.006,-3.956 -3.932,-6.671 -2.737,-9.563 1.175,-2.891 1.389,-11.035 1.329,-13.89 -0.089,-2.845 3.736,-8.862 10.205,-8.508 3.821,0.224 5.733,-0.998 8.699,-0.354 3.839,0.858 4.441,3.675 2.239,-2.482 -1.362,-3.75 -12.412,-9.039 -15.989,-9.17 -2.006,-0.047 -9.749,1.716 -10.654,3.75 -0.919,1.894 -1.614,18.779 -1.553,18.853 1.647,2.818 2.752,8.48 2.766,9.768 0.047,1.259 -0.122,12.361 0.541,13.909 3.121,7.239 0.149,16.531 0.732,21.298 0.196,1.726 1.754,6.866 1.941,7.622 C -0.518,-2.202 0,0 0,0" /></g><g
           transform="translate(234.0593,116.6404)"
           id="g24"
           style="fill:#000000;fill-opacity:1"><path
             id="path26"
             style="fill:#000000;fill-opacity:1;fill-rule:evenodd;stroke:none"
             d="m 0,0 c 2.835,-0.541 9.986,1.633 12.729,3.638 2.743,1.978 7.183,5.131 10.98,6.12 3.806,0.989 9.739,0.84 11.941,0.019 4.002,-1.558 6.609,-5.374 2.281,-8.639 -1.638,-1.268 -7.934,-3.442 -8.131,-4.469 -0.969,-5.065 2.538,-3.423 0.36,-7.948 -1.082,-2.211 -3.965,-5.373 -4.161,-7.631 -0.214,-2.835 -0.065,-5.905 1.493,-5.522 1.586,0.448 14.586,4.543 16.283,3.349 1.707,-1.148 9.203,-3.2 9.362,-8.573 0.158,-5.402 -1.101,-5.495 -2.85,-5.934 -1.707,-0.419 -9.889,-0.737 -13.994,1.493 -4.925,2.659 -22.309,0.094 -27.958,-2.024 -3.172,-1.157 -7.286,-1.287 -8.68,-0.616 -1.385,0.672 -5.318,0.784 -4.465,3.265 2.128,6.213 11.069,3.554 16.994,6.316 0.648,0.289 5.956,17.986 5.541,19.74 -0.388,1.735 -0.229,2.509 -1.18,2.537 -0.934,0.028 -2.515,-0.243 -2.515,-0.243 L 7.645,-8.097 c 0,0 -3.461,-0.849 -5.499,-0.663 -2.043,0.206 -5.439,2.202 -5.439,2.202 C -7.188,-5.467 -8.186,1.586 0,0" /></g><g
           transform="translate(356.1779,126.4825)"
           id="g28"
           style="fill:#000000;fill-opacity:1"><path
             id="path30"
             style="fill:#000000;fill-opacity:1;fill-rule:evenodd;stroke:none"
             d="m 0,0 c 1.483,0.289 5.686,-2.202 8.555,-1.987 3.778,0.363 6.833,0.821 10.279,1.613 10.351,2.38 17.18,4.525 27.105,7.958 C 50.66,9.217 56.043,5.998 55.669,3.797 55.325,1.604 46.551,-0.84 44.694,-1.138 42.842,-1.474 30.529,-7.575 29.339,-8.387 c -1.19,-0.858 -6.936,-4.842 -2.957,-9.627 3.97,-4.767 3.554,-3.582 3.307,-6.092 -0.583,-5.308 -4.571,-7.537 -6.11,-10.831 -1.95,-4.188 -2.757,-7.08 6.324,-5.709 3.13,0.467 9.922,1.511 17.301,3.247 2.243,0.541 4.547,0.951 6.553,-0.616 2.566,-2.043 8.093,-2.36 8.471,-6.325 0.615,-6.082 -1.81,-7.23 -3.998,-7.724 -1.007,-0.206 -7.738,0.41 -12.888,1.866 -7.761,2.229 -18.638,0.475 -18.638,0.475 l -18.28,-0.643 -16.782,-2.976 c 0,0 -12.721,-2.827 -15.739,-0.579 -3.059,2.249 -7.379,4.198 -8.362,8.126 -0.98,3.89 4.277,3.853 5.275,3.853 1.036,-0.028 21.41,-3.965 31.946,0.662 10.528,4.664 11.316,15.178 10.85,17.352 -0.49,2.201 -0.466,5.298 -4.502,7.332 -4.029,2.071 -10.704,10.812 -10.704,10.812 0,0 -1.899,5.457 -0.406,5.784" /></g><g
           transform="translate(503.4983,165.8123)"
           id="g32"
           style="fill:#000000;fill-opacity:1"><path
             id="path34"
             style="fill:#000000;fill-opacity:1;fill-rule:evenodd;stroke:none"
             d="M 0,0 C 0,0 2.775,-2.51 5.094,-5.635 7.412,-8.722 8.909,-14.413 8.139,-17.715 7.36,-21.027 6.68,-32.203 6.68,-32.203 6.624,-33.882 4.702,-45.049 8.251,-44.181 c 2.738,0.644 4.329,0.97 4.945,3.079 0.615,2.183 4.188,4.888 5.807,5.69 1.269,0.616 25.957,17.958 36.098,26.186 1.394,1.166 -0.672,3.993 -0.234,5.056 0.434,1.017 3.401,0.308 3.401,0.308 0,0 6.624,-3.573 5.723,-9.03 -0.882,-5.43 -1.67,-4.786 -5.415,-5.476 -9.968,-1.885 -6.726,-1.745 -13.481,-5.914 -2.491,-1.587 -26.456,-13.238 -24.875,-15.505 1.54,-2.22 3.592,-1.157 3.592,-1.157 0,0 6.502,0.672 7.057,-0.69 0.55,-1.344 3.116,-2.855 1.371,-6.316 -1.656,-3.479 -9.762,-10.495 -12.216,-13.927 -2.467,-3.424 -5.243,-5.019 -4.021,-5.449 1.232,-0.457 6.396,-0.167 6.396,-0.167 0,0 5.508,-0.159 4.156,-1.614 -1.348,-1.493 -3.947,-1.064 -5.239,-3.275 -1.315,-2.192 0.047,-6.428 0.047,-6.428 0,0 3.041,1.353 4.609,3.564 1.51,2.221 1.753,2.221 2.238,1.568 0.551,-0.663 1.399,-3.201 0.285,-5.15 -1.068,-1.941 -7.37,-8.956 -7.328,-10.56 0.047,-0.7 -1.18,0.746 -0.923,-14.068 0.079,-6.11 2.477,-11.027 2.514,-11.223 0.098,-0.578 -2.953,-3.965 -6.488,0.485 -3.541,4.394 -11.19,1.624 -11.19,1.624 -3.041,-8.079 0.61,-6.493 -6.694,-9.74 -8.317,-3.675 -14.194,5.514 -14.194,5.514 -3.125,7.556 0.7,13.526 4.847,6.614 2.356,-3.993 4.79,-5.169 7.44,-3.219 1.343,0.998 1.18,4.776 5.331,6.885 1.035,0.513 3.447,-1.101 4.379,-0.868 2.823,0.775 5.136,0.719 6.652,2.062 2.067,1.745 3.27,4.646 1.068,5.663 -2.182,1.045 -6.893,0.494 -8.941,2.696 -2.025,2.248 -6.596,3.554 -5.537,5.522 1.087,1.95 10.019,4.161 8.965,6.185 -1.096,2.025 -4.576,5.103 -2.957,5.868 1.628,0.831 5.177,1.054 2.929,3.032 -2.253,1.959 -4.609,1.81 -6.857,3.321 -2.22,1.493 0.528,3.536 3.158,3.694 2.575,0.168 6.917,3.946 6.917,3.946 0,0 16.405,15.468 12.907,17.007 -3.093,1.315 -8.331,1.791 -20.071,-2.248 -0.63,-0.215 -2.285,-2.435 -2.943,-2.631 -0.658,-0.243 -2.943,0.886 -3.657,0.644 -6.115,-2.211 -12.617,-4.982 -20.039,-10.309 -4.673,-3.34 -3.721,-1.511 -4.403,-3.955 -1.348,-4.581 -7.01,-4.236 -7.118,-4.18 -2.248,1.362 -10.014,2.864 -10.909,4.021 -1.787,2.463 -0.565,3.676 4.146,4.431 4.72,0.756 20.188,5.514 24.563,8.125 4.384,2.594 12.029,4.507 13.018,7.511 1.292,3.815 0.928,10.187 0.429,16.772 -0.489,6.568 -1.134,13.313 -2.92,16.876 -1.324,2.724 -1.791,9.898 0.224,12.361 C -3.19,1.484 0,0 0,0" /></g><g
           transform="translate(481.4265,137.845)"
           id="g36"
           style="fill:#000000;fill-opacity:1"><path
             id="path38"
             style="fill:#000000;fill-opacity:1;fill-rule:evenodd;stroke:none"
             d="m 0,0 c 2.029,-2.845 3.354,-4.002 4.744,-3.144 0.988,0.616 13.9,9.021 12.262,7.678 C 14.833,2.724 10.485,-2.538 8.004,-6.596 7.393,-7.594 7.468,-10.327 7.108,-11.298 6.007,-14.32 5.093,-15.3 2.729,-15.57 c -3.149,-0.345 -4.138,0.653 -4.138,0.653 -0.312,1.334 -2.145,2.108 -3.055,3.377 -1.992,2.789 -3.517,6.008 -3.311,8.695 C -7.51,0.457 -2.02,2.724 0,0" /></g><g
           transform="translate(516.4606,149.7486)"
           id="g40"
           style="fill:#000000;fill-opacity:1"><path
             id="path42"
             style="fill:#000000;fill-opacity:1;fill-rule:evenodd;stroke:none"
             d="m 0,0 c -0.289,-0.308 -1.627,-2.939 -0.406,-4.87 1.194,-1.95 -0.391,-0.858 3.037,-3.414 3.41,-2.538 8.219,1.11 8.461,1.353 l 3.634,3.171 c 0,0 7.556,5.467 6.232,6.316 C 19.656,3.405 9.109,-1.791 7.533,-2.025 5.929,-2.295 4.38,-0.112 3.387,0.942 2.379,1.959 0.331,0.345 0,0" /></g><g
           transform="translate(527.5246,68.8211)"
           id="g44"
           style="fill:#000000;fill-opacity:1"><path
             id="path46"
             style="fill:#000000;fill-opacity:1;fill-rule:evenodd;stroke:none"
             d="m 0,0 c -0.116,0.438 5.36,3.918 6.945,2.164 1.619,-1.726 7.524,-4.403 7.771,-8.862 0.219,-4.422 -0.215,-4.534 -2.803,-8.023 -2.593,-3.452 -3.708,-7.939 -5.984,-9.105 -2.267,-1.194 -2.622,-2.799 -4.87,-1.903 -2.253,0.858 -0.467,0.858 0.382,2.631 1.568,3.34 1.05,4.618 1.05,6.287 0.032,1.717 0.592,3.825 -0.761,8.48 C 0.882,-5.42 1.54,-4.907 0.271,-3.069 -0.975,-1.213 0.117,-0.457 0,0" /></g><g
           transform="translate(608.2233,113.4498)"
           id="g48"
           style="fill:#000000;fill-opacity:1"><path
             id="path50"
             style="fill:#000000;fill-opacity:1;fill-rule:evenodd;stroke:none"
             d="m 0,0 c 0,0 0.868,-1.95 7.253,-3.629 6.376,-1.735 5.695,-0.457 10.22,0.532 4.483,0.942 7.864,2.929 7.864,2.929 2.351,11.428 2.351,23.154 3.312,34.713 l -0.215,4.898 c 0,0 0.346,7.798 2.486,9.72 2.705,2.407 9.614,-5.075 8.821,-8.9 -0.779,-3.862 -5.36,-36.419 -2.3,-36.848 3.074,-0.43 25.51,6.371 25.762,6.39 4.464,0.354 1.558,4.543 2.985,4.664 1.577,0.094 11.111,-1.828 14.138,-4.272 C 83.339,7.752 81.501,8.723 79.934,7.482 78.404,6.232 69.351,7.333 66.211,6.427 63.077,5.532 36.877,-2.071 36.275,-4.151 c -0.625,-2.062 -2.248,-15.57 -2.248,-15.57 0,0 -1.567,-16.764 -6.628,-21.176 -5.066,-4.413 -4.772,-4.347 -9.963,-4.777 -2.207,-0.168 -4.021,1.054 -6.195,1.278 -1.259,0.14 -4.366,4.142 -5.429,5.374 -1.763,2.099 -1.698,4.506 3.484,9.87 2.202,2.313 5.961,2.91 7.883,5.476 1.483,1.996 3.191,3.592 4.1,5.709 2.109,4.897 3.27,9.627 1.237,9.04 -2.002,-0.607 -9.176,-2.51 -9.176,-2.51 0,0 -6.964,-0.103 -9.002,0.634 C 1.395,-9.749 -7.5,-6.521 -4.245,-1.912 -3.111,-0.317 0,0 0,0" /></g><g
           transform="translate(654.7556,94.3726)"
           id="g52"
           style="fill:#000000;fill-opacity:1"><path
             id="path54"
             style="fill:#000000;fill-opacity:1;fill-rule:evenodd;stroke:none"
             d="m 0,0 c 1.138,-0.354 8.928,0.243 13.177,-4.711 4.244,-4.991 6.283,-3.918 7.043,-11.446 0.756,-7.538 -0.536,-10.281 -3.13,-12.1 -2.593,-1.828 -4.995,-0.364 -6.46,0.933 -7.155,6.381 -3.507,8.685 -7.878,14.534 C 1.078,-10.504 -3.2,-4.805 -2.896,-1.997 -2.575,0.896 -1.167,0.383 0,0" /></g><g
           transform="translate(750.4645,176.4102)"
           id="g56"
           style="fill:#000000;fill-opacity:1"><path
             id="path58"
             style="fill:#000000;fill-opacity:1;fill-rule:evenodd;stroke:none"
             d="m 0,0 c -0.042,0 2.183,-1.95 2.976,-5.094 0.597,-2.453 2.467,-10.047 2.882,-11.092 2.123,-5.28 0.649,-1.632 2.431,-6.222 1.109,-2.845 0.923,-7.584 -0.308,-9.188 -1.218,-1.624 -1.236,-2.342 -4.693,-0.551 -3.414,1.772 -5.102,4.673 -7.089,8.694 -1.983,4.021 -1.642,22.492 1.119,22.893 C -1.624,0.522 0,0 0,0" /></g><g
           transform="translate(774.2111,158.7879)"
           id="g60"
           style="fill:#000000;fill-opacity:1"><path
             id="path62"
             style="fill:#000000;fill-opacity:1;fill-rule:evenodd;stroke:none"
             d="m 0,0 c 3.232,-0.793 4.426,-1.633 6.833,-1.828 8.755,-0.784 9.329,3.806 16.754,7.052 4.787,2.043 14.982,1.847 15.29,1.847 9.045,0.029 10.061,-7.509 8.863,-10.467 -1.777,-4.235 -11.255,-5.009 -12.608,-6.24 -1.199,-1.083 -21.288,-6.064 -19.399,-6.913 1.824,-0.84 11.465,-1.148 16.008,-4.59 7.277,-5.541 9.576,-7.584 10.043,-14.413 0.504,-6.847 -0.243,-16.176 -7.183,-18.527 -3.928,-1.334 -8.961,-0.475 -12.268,-1.017 -2.556,-0.429 -3.993,-2.435 -3.666,-2.808 0.709,-0.895 -0.042,-3.75 -2.505,-6.819 -2.472,-3.06 -2.957,-4.142 -5.509,-6.857 -2.565,-2.743 -1.39,-2.733 0.094,-5.233 0.555,-0.943 2.206,-2.137 3.134,-3.228 1.604,-1.857 2.538,-3.517 2.538,-3.517 0,0 2.877,1.371 4.659,1.371 1.828,0 6.246,1.857 11.354,-0.867 5.083,-2.687 7.784,-2.659 7.831,-5.169 0.037,-2.518 -0.485,-3.862 -2.584,-5.485 -2.146,-1.651 -4.693,-1.819 -5.956,-0.401 -1.297,1.455 -12.487,4.348 -12.781,2.398 -0.317,-1.997 -0.126,-9.777 -0.317,-12.212 -0.472,-5.466 -1.213,-19.227 -12.156,-14.235 -1.04,0.484 -1.436,2.518 -4.128,3.274 -5.914,1.651 -14.51,2.845 -18.135,4.039 -3.867,1.297 -6.507,4.031 -4.347,4.31 8.867,1.232 20.654,-2.35 27.856,5.653 2.122,2.361 3.153,7.351 0.643,9.114 -1.553,1.111 -8.47,-1.427 -13.475,-2.546 -3.037,-0.635 -4.007,-1.119 -5.747,-0.653 -4.706,1.222 -11.553,3.144 -11.04,4.758 0.517,1.613 2.038,1.492 7.253,1.343 5.234,-0.158 19.623,2.5 21.591,3.405 1.959,0.923 2.687,2.351 -0.652,6.651 -3.336,4.32 -4.357,2.165 -4.059,4.852 0.065,0.466 0.047,1.987 0.551,2.695 0.504,0.756 1.591,0.803 2.276,1.754 2.08,2.892 5.066,5.84 5.01,7.594 -0.047,2.845 -0.98,6.857 -4.403,7.929 -3.443,1.045 -9.432,-2.024 -11.732,-4.524 -2.294,-2.463 -3.586,-6.027 -5.76,-5.504 -2.164,0.541 0.433,1.903 0.919,5.308 0.49,3.424 0.732,4.469 1.795,5.383 1.05,0.886 6.983,6.838 12.73,6.147 3.596,-0.438 8.405,-2.126 11.563,-4.552 1.002,-0.775 1.46,1.856 1.847,2.164 1.059,0.914 13.988,0.858 15.35,4.058 1.391,3.274 3.536,8.685 1.083,14.078 -4.184,9.207 -15.649,10.056 -23.569,7.033 -9.451,-3.619 -26.662,-19.814 -26.662,-19.814 0,0 -5.225,-6.801 -8.96,-14.534 -2.991,-6.223 -0.658,-15.029 -8.606,-15.076 -4.124,-0.009 -6.256,9.6 -5.733,13.033 0.158,1.073 1.544,3.778 0.061,6.11 -1.484,2.332 -4.077,4.133 -2.291,4.842 1.787,0.736 6.969,0.429 10.574,3.992 14.274,14.124 17.958,14.973 36.28,25.412 2.253,1.278 0.504,2.64 5.416,4.123 4.827,1.437 10.523,5.99 11.857,7.744 1.604,2.145 -1.395,4.552 -4.842,3.227 -2.188,-0.821 -3.009,-2.537 -6.078,-2.91 C 7.859,-8.62 6.199,-8.452 5.149,-7.985 1.787,-6.521 -3.013,0.774 0,0" /></g><g
           transform="translate(41.6477,135.5403)"
           id="g64"
           style="fill:#000000;fill-opacity:1"><path
             id="path66"
             style="fill:#000000;fill-opacity:1;fill-rule:evenodd;stroke:none"
             d="m 0,0 c 2.081,0.252 5.733,-0.876 6.078,-3.367 0.224,-1.642 0.359,-2.482 0.168,-3.256 -0.191,-0.784 -0.56,-1.679 0.191,-1.418 0.742,0.252 3.465,1.893 4.273,2.463 0.844,0.615 3.517,2.695 3.82,3.143 0.364,0.476 3.61,3.256 3.106,5.197 C 17.166,4.693 15.257,6.847 10.63,8.34 6.549,9.628 5.099,9.385 1.558,9.002 0.364,8.872 -3.176,6.885 -3.647,6.503 -4.119,6.12 -6.437,4.478 -6.595,2.715 -6.343,-0.485 -2.118,-0.299 0,0" /></g><g
           transform="translate(91.1369,136.8094)"
           id="g68"
           style="fill:#000000;fill-opacity:1"><path
             id="path70"
             style="fill:#000000;fill-opacity:1;fill-rule:evenodd;stroke:none"
             d="M 0,0 C -0.191,2.024 -0.256,7.286 0.742,8.116 1.735,8.974 1.703,10.831 2.72,11.511 3.708,12.221 6.269,11.409 6.852,4.627 7.459,-2.146 6.334,-5.663 3.797,-8.088 -3.208,-17.977 0.317,-3.386 0,0 m -5.831,-62.876 c 1.442,0.037 1.297,-1.754 1.316,-4.31 0.056,-2.547 0.252,-4.907 -1.189,-4.926 -1.469,-0.018 -2.664,2.081 -2.701,4.59 -0.028,2.566 1.11,4.646 2.574,4.646 m -43.178,42.166 c 2.515,1.455 6.083,2.901 8.112,3.582 2.047,0.681 8.456,2.556 12.851,-1.474 4.393,-4.048 3.763,-6.885 2.592,-10.084 -3.036,-8.126 -5.373,-2.911 -9.86,-7.314 -4.753,-4.655 -7.752,-13.2 -9.077,-24.721 -0.2,-1.791 0.821,-0.299 2.351,0.14 1.562,0.438 8.648,7.78 10.649,11.101 2.001,3.358 4.865,8.312 5.425,11.334 0.541,3.042 -0.901,4.413 0.013,4.917 0.891,0.532 16.881,7.724 18.943,12.584 2.075,4.879 1.586,9.814 1.716,12.044 0.131,2.229 0.56,20.337 1.101,22.379 0.546,2.053 0.919,11.578 2.757,12.669 1.879,1.12 2.766,2.929 3.409,2.537 0.649,-0.429 2.295,0.122 3.135,-0.615 C 5.924,27.623 7.127,28.64 4.926,22.109 2.733,15.598 5.43,14.646 5.122,14.329 4.8,13.984 7.729,12.752 8.881,5.718 10.052,-1.334 9.777,-4.142 5.458,-12.659 2.557,-18.406 -0.55,-21.12 -1.548,-24.74 c -0.514,-1.894 -0.803,-3.825 -0.896,-6.017 -0.303,-6.399 -0.252,-9.73 0.205,-10.495 0.439,-0.718 1.568,-1.81 3.032,0.55 0.248,0.429 0.737,0.877 1.092,1.194 6.148,5.523 13.354,9.143 15.365,13.098 0.923,1.81 2.164,9.068 1.823,10.877 -0.331,1.81 0,7.65 1.18,8.014 1.063,0.373 4.809,0.849 6.596,1.829 3.876,2.108 5.765,5.699 5.634,10.569 -0.061,1.623 -0.439,4.534 -1.464,5.802 -1.022,1.241 -2.486,4.348 -0.364,5.262 2.117,0.896 5.578,3.321 6.987,2.873 1.404,-0.485 6.055,-2.332 7.72,-4.076 2.71,-2.855 2.304,-8.098 -0.299,-11.54 -2.034,-2.687 -5.877,-3.844 -7.64,-4.926 -3.111,-1.95 -7.753,-5.485 -7.748,-7.509 0.056,-2.034 0.499,-7.044 0.262,-8.882 -0.765,-5.886 0.988,-5.597 1.529,-6.017 0.528,-0.42 0.346,-0.96 3.905,0.514 4.706,1.921 10.34,6.539 14.986,11.39 1.385,1.446 1.698,2.92 2.803,4.207 1.125,1.306 2.962,2.463 3.849,2.342 4.328,-0.532 3.009,0.559 3.95,0.056 0.882,-0.485 6.507,-2.799 2.486,-7.948 -3.974,-5.15 -17.076,-12.109 -17.267,-15.179 -0.238,-3.059 -0.112,-14.347 -2.099,-17.155 -2.006,-2.846 -3.48,-10.327 -3.573,-14.404 -0.014,-1.726 -3.321,-13.275 0.704,-22.006 5.794,-12.483 0.472,-16.083 0.271,-16.046 -2.948,0.737 -10.359,3.592 -10.556,7.659 -0.177,4.049 -0.83,5.83 -0.126,7.864 0.761,2.062 -0.835,23.509 -0.093,25.645 2.127,6.353 0.975,24.675 -4.524,9.403 -1.703,-4.757 -2.309,-8.563 -4.977,-9.739 -2.626,-1.175 -5.289,-0.942 -7.333,0.299 -2.029,1.222 -2.505,6.801 -2.668,10.635 -0.186,3.815 4.156,9.645 3.461,10.765 -0.699,1.157 -0.96,2.696 -5.07,-1.063 -4.123,-3.722 -10.807,-12.147 -11.237,-17.25 -0.447,-5.102 -0.541,-4.468 0.77,-9.916 0.732,-3.069 0.732,-5.392 1.231,-6.782 1.218,-3.414 6.988,-16.904 6.237,-18.928 -1.115,-2.939 -0.103,-2.547 -1.992,-2.192 -1.921,0.354 -7.262,5.457 -7.92,6.968 -0.648,1.539 -4.66,12.323 -6.684,12.296 -2.015,-0.038 -3.037,0.83 -4.795,-1.092 -1.768,-1.94 -3.037,-1.082 -3.037,-1.082 0,0 -5.466,0.7 -6.418,6.427 -0.951,5.701 0.443,8.648 0.443,8.648 4.534,2.678 15.463,9.152 17.496,13.583 0.826,1.857 0.248,10.42 -0.662,11.185 -0.896,0.756 -2.776,0.476 -4.399,-1.856 -1.618,-2.314 -4.533,-3.527 -6.306,-3.032 -1.805,0.457 -3.204,2.033 -5.061,0.457 -1.88,-1.539 -3.214,-6.008 -3.214,-6.008 0,0 -2.589,-6.875 -4.043,-10.438 -1.437,-3.592 -3.984,-10.58 -5.472,-14.898 -1.492,-4.357 -0.765,-11.979 -2.77,-13.649 -1.987,-1.707 -3.177,-2.5 -3.877,-2.752 -4.748,-1.689 -10.723,7.445 -12.029,12.473 -0.29,1.147 0.84,8.489 0.737,9.879 -0.028,0.467 3.199,1.175 4.879,4.982 3.209,7.23 5.9,20.122 5.462,24.544 -0.64,6.791 -8.685,5.672 -10.738,7.789 -5.294,5.495 2.109,5.29 4.795,6.829" /></g></g></g></g></svg>
